# xmcd CD database file
#
# Track frame offsets:
#	183
#	13820
#	27568
#	41358
#	53843
#	68423
#	83083
#	96398
#	110000
#	120428
#	133723
#	147148
#	160050
#	173215
#	185105
#
# Disc length: 2639 seconds
#
# Revision: 0
# Processed by: cddbd v1.4PL0 Copyright (c) Steve Scherf et al.
# Submitted via: CDex 1.50
#
DISCID=ca0a4d0f
DTITLE=Billie Holiday - V. Billie Holiday Legendary Unissued and Rare Masters (1935-38)
DYEAR=1900
DGENRE=Jazz
TTITLE0=What A Little Moonlight Can Do
TTITLE1=Miss Brown To You
TTITLE2=Twenty Four Hours A Day
TTITLE3=Yankee Doodle Never Went To Town
TTITLE4=If You Were Mine
TTITLE5=These N'That N'Those
TTITLE6=Spreadin' Rhythm Around
TTITLE7=Let's Call A Heart A Heart
TTITLE8=Please Keep Me In Your Dreams
TTITLE9=I Wish I Had You
TTITLE10=I'll Never Fail You
TTITLE11=You're So Desirable
TTITLE12=You're Gonna See A Lot Of Me
TTITLE13=Hello My Darling
TTITLE14=Let's Dream In The Moonlight
EXTD=
EXTT0=
EXTT1=
EXTT2=
EXTT3=
EXTT4=
EXTT5=
EXTT6=
EXTT7=
EXTT8=
EXTT9=
EXTT10=
EXTT11=
EXTT12=
EXTT13=
EXTT14=
PLAYORDER=
